<svg width="167" height="79" viewBox="0 0 167 79" fill="none" xmlns="http://www.w3.org/2000/svg">
<path d="M59.3385 45.6379C59.3385 51.5624 64.1985 55.6356 70.7248 55.6356C77.5288 55.6356 81.926 51.1459 81.926 46.0544C81.926 42.6756 79.982 40.639 77.4826 39.1115C77.8991 38.6487 81.3706 34.9458 81.3706 30.5949C81.3706 25.2258 77.1586 21.8469 71.0951 21.8469C64.1985 21.8469 60.9122 26.0589 60.9122 30.4098C60.9122 33.4184 62.4397 35.4087 64.5688 36.9361C63.6894 37.5378 59.3385 40.639 59.3385 45.6379ZM77.2048 45.9156C77.2048 49.2944 74.15 51.5162 70.7248 51.5162C67.2534 51.5162 64.0134 49.1093 64.0134 45.3601C64.0134 41.8424 66.8831 39.6207 67.9477 38.8801C72.3448 41.0093 77.2048 42.3978 77.2048 45.9156ZM65.4482 30.5024C65.4482 28.0029 67.4385 25.9664 71.0488 25.9664C74.474 25.9664 76.8808 27.8641 76.8808 30.8727C76.8808 34.2978 74.5203 36.7973 74.0111 37.3064C69.7991 35.5012 65.4482 34.1127 65.4482 30.5024Z" fill="#3E8600"/>
<path d="M86.0187 55.0802H90.5084V44.3881C90.5084 43.3236 90.5547 42.259 90.7861 41.3333C91.6656 38.0007 94.0724 35.1773 97.4976 35.1773C101.108 35.1773 101.571 38.0007 101.571 41.0556V55.0802H106.06V44.3881C106.06 43.1847 106.153 42.1201 106.384 41.1481C107.218 37.9544 109.671 35.1773 112.957 35.1773C116.475 35.1773 117.123 37.7693 117.123 41.0556V55.0802H121.612V40.0835C121.612 34.1127 119.159 31.1041 113.883 31.1041C110.087 31.1041 106.847 33.6035 105.551 36.427H105.459C104.672 32.9092 102.358 31.1041 98.4233 31.1041C94.7667 31.1041 91.4804 33.7424 90.3695 36.4733H90.277C90.277 36.4733 90.3695 35.6864 90.3695 34.7607V31.6595H86.0187V55.0802Z" fill="#3E8600"/>
<path d="M125.966 26.9847H130.502V22.4024H125.966V26.9847ZM126.013 55.0802H130.502V31.6595H126.013V55.0802Z" fill="#3E8600"/>
<path d="M134.947 48.6927C134.947 54.571 138.696 55.2653 141.242 55.2653C142.029 55.2653 142.723 55.1727 142.723 55.1727V51.1922C142.723 51.1922 142.353 51.2384 141.936 51.2384C140.547 51.2384 139.437 50.7293 139.437 47.9059V22.4024H134.947V48.6927Z" fill="#3E8600"/>
<path d="M143.54 43.3698C143.54 50.3127 148.585 55.6356 155.944 55.6356C161.545 55.6356 165.016 52.303 165.016 52.303L163.165 49.0167C163.165 49.0167 160.249 51.7476 156.222 51.7476C152.056 51.7476 148.4 49.1556 148.168 44.0178H165.248C165.248 44.0178 165.387 42.6756 165.387 42.0738C165.387 36.0104 161.869 31.1041 155.25 31.1041C148.585 31.1041 143.54 35.9178 143.54 43.3698ZM148.307 40.639C148.955 36.7973 151.732 34.6681 155.157 34.6681C158.166 34.6681 160.665 36.6121 160.804 40.639H148.307Z" fill="#3E8600"/>
<path d="M114.696 64.8002H115.891V62.5322H117.233C118.464 62.5322 119.325 61.6435 119.325 60.366C119.325 59.0885 118.464 58.2276 117.233 58.2276H114.696V64.8002ZM115.891 61.4954V59.2551H117.029C117.705 59.2551 118.112 59.6902 118.112 60.366C118.112 61.051 117.705 61.4954 117.011 61.4954H115.891Z" fill="#3E8600"/>
<path d="M123.9 64.8002H125.076V62.9302C125.076 62.6525 125.104 62.3933 125.178 62.1619C125.4 61.4584 125.965 61.1714 126.465 61.1714C126.622 61.1714 126.742 61.1899 126.742 61.1899V60.0327C126.742 60.0327 126.641 60.0142 126.529 60.0142C125.807 60.0142 125.243 60.5511 125.03 61.2269H125.011C125.011 61.2269 125.03 61.0696 125.03 60.8937V60.079H123.9V64.8002Z" fill="#3E8600"/>
<path d="M130.886 62.4396C130.886 63.893 132.043 64.9113 133.487 64.9113C134.922 64.9113 136.079 63.893 136.079 62.4396C136.079 60.9955 134.922 59.9679 133.478 59.9679C132.043 59.9679 130.886 60.9955 130.886 62.4396ZM132.08 62.4396C132.08 61.5694 132.719 60.9677 133.487 60.9677C134.246 60.9677 134.885 61.5694 134.885 62.4396C134.885 63.319 134.246 63.9115 133.487 63.9115C132.719 63.9115 132.08 63.319 132.08 62.4396Z" fill="#3E8600"/>
<path d="M140.726 59.2737H141.892V58.2276H140.726V59.2737ZM140.726 60.079V64.8465C140.726 65.6148 140.106 65.7167 139.773 65.7167C139.652 65.7167 139.569 65.6981 139.569 65.6981V66.6887C139.569 66.6887 139.708 66.7164 139.93 66.7164C140.578 66.7164 141.902 66.522 141.902 64.939V60.079H140.726Z" fill="#3E8600"/>
<path d="M146.564 62.4396C146.564 63.7819 147.536 64.9113 149.1 64.9113C150.276 64.9113 150.998 64.2355 150.998 64.2355L150.544 63.3931C150.544 63.3931 149.943 63.9115 149.183 63.9115C148.48 63.9115 147.841 63.4857 147.767 62.6618H151.026C151.026 62.6618 151.053 62.347 151.053 62.2082C151.053 60.9585 150.322 59.9679 148.961 59.9679C147.554 59.9679 146.564 60.9862 146.564 62.4396ZM147.804 61.8564C147.915 61.2454 148.332 60.8752 148.933 60.8752C149.452 60.8752 149.85 61.2177 149.868 61.8564H147.804Z" fill="#3E8600"/>
<path d="M155.383 62.4396C155.383 63.8097 156.383 64.9113 157.947 64.9113C159.216 64.9113 159.891 64.1429 159.891 64.1429L159.438 63.3098C159.438 63.3098 158.845 63.9115 158.049 63.9115C157.151 63.9115 156.577 63.2265 156.577 62.4304C156.577 61.625 157.142 60.9677 158.012 60.9677C158.753 60.9677 159.243 61.4769 159.243 61.4769L159.762 60.6715C159.762 60.6715 159.178 59.9679 157.947 59.9679C156.383 59.9679 155.383 61.0973 155.383 62.4396Z" fill="#3E8600"/>
<path d="M164.677 63.0691C164.677 64.6521 165.982 64.8465 166.639 64.8465C166.861 64.8465 167 64.8187 167 64.8187V63.7912C167 63.7912 166.917 63.8097 166.787 63.8097C166.463 63.8097 165.852 63.6986 165.852 62.921V61.0881H166.926V60.1531H165.852V58.7923H164.704V60.1531H164.066V61.0881H164.677V63.0691Z" fill="#3E8600"/>
<path d="M82.7776 28.8175C82.7776 30.4005 84.0829 30.5949 84.7401 30.5949C84.9623 30.5949 85.1011 30.5671 85.1011 30.5671V29.5396C85.1011 29.5396 85.0178 29.5581 84.8882 29.5581C84.5642 29.5581 83.9533 29.447 83.9533 28.6694V26.8365H85.0271V25.9015H83.9533V24.5407H82.8054V25.9015H82.1666V26.8365H82.7776V28.8175Z" fill="#3E8600"/>
<path d="M86.0635 30.5486H87.2391V28.3825C87.2391 28.1603 87.2576 27.9566 87.3132 27.7715C87.4891 27.1975 87.9704 26.7902 88.5907 26.7902C89.1924 26.7902 89.3405 27.179 89.3405 27.753V30.5486H90.5069V27.5123C90.5069 26.2626 89.9144 25.7164 88.8684 25.7164C88.0445 25.7164 87.4706 26.1978 87.2391 26.6514H87.2206C87.2206 26.6514 87.2391 26.4847 87.2391 26.2533V23.976H86.0635V30.5486Z" fill="#3E8600"/>
<path fill-rule="evenodd" clip-rule="evenodd" d="M32.6699 55.0836C30.7567 57.6569 26.873 61.9964 21.3605 63.8535C19.7016 64.4124 18.024 64.703 16.4053 64.8119C14.582 68.1904 14.0286 71.2428 14.0286 71.2428C14.0286 71.2428 21.9089 71.7705 27.6382 67.3028C33.3674 62.8352 34.7762 55.0639 34.7762 55.0639C34.7762 55.0639 33.9633 55.0095 32.6699 55.0836Z" fill="#3E8600"/>
<path fill-rule="evenodd" clip-rule="evenodd" d="M27.9301 68.1963C29.7283 66.8659 31.5771 65.0822 32.8953 62.7784C33.7236 61.3308 34.2687 59.8066 34.6179 58.3218C35.7038 60.4109 37.0391 63.8206 36.6997 67.5073C36.1455 73.5268 31.3366 78.0051 31.3366 78.0051C31.3366 78.0051 28.0528 73.5702 27.9301 68.1963Z" fill="#3E8600"/>
<path fill-rule="evenodd" clip-rule="evenodd" d="M37.5934 66.9963C37.768 65.0614 37.6749 62.6883 36.774 60.4138C36.2964 59.208 35.6343 58.1374 34.9012 57.2054C36.4882 57.6665 39.7427 58.8935 41.8442 61.6143C44.7102 65.325 44.3461 70.4089 44.3461 70.4089C44.3461 70.4089 40.4766 69.6889 37.5934 66.9963Z" fill="#3E8600"/>
<path fill-rule="evenodd" clip-rule="evenodd" d="M32.1893 51.9646C29.4801 53.8331 23.2974 57.4443 16.2394 57.225C13.6133 57.1434 11.1411 56.5401 8.93847 55.7098C5.45186 58.7511 3.53952 61.9755 3.53952 61.9755C3.53952 61.9755 12.1536 65.852 20.4387 63.2318C28.7238 60.6117 33.5425 52.487 33.5425 52.487C33.5425 52.487 33.0508 52.2657 32.1893 51.9646Z" fill="#3E8600"/>
<path fill-rule="evenodd" clip-rule="evenodd" d="M34.0712 49.23C30.3637 49.4636 22.6904 49.3376 16.2751 45.2723C15.1022 44.529 14.0303 43.6915 13.0534 42.7979C5.586 44.5619 0.182841 49.7173 0.182841 49.7173C0.182841 49.7173 8.16103 56.3884 17.7226 56.0749C25.5161 55.8195 31.956 51.0027 34.0712 49.23Z" fill="#3E8600"/>
<path fill-rule="evenodd" clip-rule="evenodd" d="M34.0036 48.335C30.188 46.2407 23.0426 41.5041 19.3533 33.833C18.7314 32.5397 18.2359 31.2218 17.8455 29.9038C11.6263 28.1198 5.90334 28.9273 5.90334 28.9273C5.90334 28.9273 8.51312 39.0372 16.4996 44.3731C23.1391 48.809 31.4044 48.5489 34.0036 48.335Z" fill="#3E8600"/>
<path fill-rule="evenodd" clip-rule="evenodd" d="M34.1036 46.6107C31.439 42.1743 26.8868 32.9471 27.7142 22.771C27.8358 21.2758 28.0687 19.8195 28.3881 18.4105C23.6866 14.079 18.7088 12.0373 18.7088 12.0373C18.7088 12.0373 15.4752 23.4205 20.2336 33.2112C23.7838 40.516 30.7799 44.8705 34.1036 46.6107Z" fill="#3E8600"/>
<path d="M47.6579 24.7339C46.6151 37.5598 36.4804 47.202 36.4804 47.202C36.4804 47.202 28.0364 36.0493 29.0792 23.2233C30.122 10.3974 40.2568 0.755245 40.2568 0.755245C40.2568 0.755245 48.7007 11.908 47.6579 24.7339Z" fill="#3E8600"/>
</svg>
